<svg width="32" height="32" viewBox="0 0 32 32" fill="none" xmlns="http://www.w3.org/2000/svg">
  <!-- Background circle -->
  <circle cx="16" cy="16" r="15" fill="#FF6B35" stroke="#E65100" stroke-width="2"/>
  
  <!-- Quiz/Question mark design -->
  <path d="M16 8C13.2 8 11 10.2 11 13H13C13 11.3 14.3 10 16 10C17.7 10 19 11.3 19 13C19 14.2 18.2 14.8 17.5 15.4C16.7 16.1 16 16.7 16 18H18C18 17.2 18.7 16.6 19.5 15.9C20.2 15.3 21 14.6 21 13C21 10.2 18.8 8 16 8Z" fill="white"/>
  <circle cx="16" cy="21" r="1.5" fill="white"/>
  
  <!-- Small decorative dots -->
  <circle cx="9" cy="9" r="1" fill="white" opacity="0.7"/>
  <circle cx="23" cy="9" r="1" fill="white" opacity="0.7"/>
  <circle cx="9" cy="23" r="1" fill="white" opacity="0.7"/>
</svg>